<?xml version="1.0" encoding="iso-8859-1"?>
<!-- Generator: Adobe Illustrator 19.0.0, SVG Export Plug-In . SVG Version: 6.00 Build 0)  -->
<svg version="1.1" id="Layer_1" xmlns="http://www.w3.org/2000/svg" xmlns:xlink="http://www.w3.org/1999/xlink" x="0px" y="0px"
	 viewBox="0 0 511.999 511.999" style="enable-background:new 0 0 511.999 511.999;" xml:space="preserve">
<circle style="fill:#2BA5F7;" cx="235.854" cy="174.986" r="165.441"/>
<path style="fill:#2197D8;" d="M202.857,291.976c-64.611-64.61-64.611-169.364,0-233.974c21.529-21.53,47.518-35.875,74.993-43.055
	c-54.975-14.37-115.901-0.024-158.982,43.055c-64.61,64.61-64.61,169.364,0,233.974c43.081,43.081,104.006,57.426,158.982,43.055
	C250.377,327.852,224.388,313.507,202.857,291.976z"/>
<path style="fill:#F7B239;" d="M337.254,502.455H134.459l0,0c0-20.681,16.766-37.448,37.448-37.448h127.898
	C320.487,465.007,337.254,481.773,337.254,502.455L337.254,502.455z"/>
<path style="fill:#CCCCCC;" d="M144.724,266.128c19.293,19.28,32.808,42.111,40.584,66.418
	c-24.307-7.763-47.163-21.291-66.444-40.571c-19.28-19.28-32.808-42.137-40.571-66.444
	C102.6,233.307,125.444,246.835,144.724,266.128z"/>
<path style="fill:#E6E6E6;" d="M393.738,125.465c-24.676-7.712-47.901-21.355-67.449-40.902
	c-19.56-19.56-33.19-42.786-40.915-67.462c24.689,7.712,47.927,21.342,67.474,40.902
	C372.396,77.564,386.039,100.789,393.738,125.465z"/>
<g>
	<path style="fill:#9AD14B;" d="M323.438,197.585c21.609-32.388,77.095-6.643,77.095-6.643
		c-3.538,36.868-19.446,72.794-47.685,101.033c-34.73,34.73-81.053,50.79-126.511,48.181v-0.013
		c7.292-66.202,43.116-59.762,64.713-66.965C312.646,265.975,301.842,229.986,323.438,197.585z"/>
	<path style="fill:#9AD14B;" d="M247.857,42.808c9.443,26.241-7.089,35.697-30.937,43.104
		c-23.823,7.394-37.237,32.159-30.887,56.288c2.087,7.941,2.278,16.43-1.171,24.791c-0.267,0.636-0.535,1.26-0.814,1.871
		c-17.079,37.351-73.927,21.94-70.427-18.975c1.031-12.026,4.098-25.402,11.186-37.861c7.343-12.93,11.021-27.68,9.583-42.48
		c-0.776-8.03-0.585-17.371,1.96-26.751c25.325-19.128,54.901-29.996,85.049-32.617C232.879,17.076,242.512,27.982,247.857,42.808z"
		/>
</g>
<path style="fill:#90BC42;" d="M221.412,10.191c-30.148,2.609-59.724,13.477-85.062,32.605v0.013
	c-2.545,9.379-2.736,18.708-1.96,26.738c1.438,14.801-2.24,29.55-9.583,42.48c-7.089,12.459-10.156,25.834-11.186,37.861
	c-2.253,26.292,20.438,42.06,41.462,40.037c-4.263-47.176,11.67-95.816,47.774-131.92c11.644-11.644,24.587-21.176,38.357-28.621
	L221.412,10.191z"/>
<path style="fill:#333333;" d="M388.15,327.283c83.974-83.974,83.974-220.612,0-304.586c-1.791-1.789-4.217-2.796-6.75-2.796
	c-2.533,0-4.958,1.005-6.75,2.796l-21.992,21.993C320.513,15.805,279.4,0,235.856,0c-46.742,0-90.686,18.202-123.736,51.254
	c-33.051,33.051-51.252,76.995-51.252,123.736c0,43.545,15.805,84.657,44.689,116.801l-21.993,21.993
	c-3.728,3.728-3.728,9.771,0,13.497c38.42,38.42,88.804,60.527,142.749,62.865v65.315h-54.405
	c-22.643,0-41.593,16.097-46.017,37.448h-17.297c-5.272,0-9.545,4.273-9.545,9.545c0,5.271,4.272,9.545,9.545,9.545h254.524
	c5.272,0,9.545-4.273,9.545-9.545c0-5.271-4.272-9.545-9.545-9.545h-17.297c-4.422-21.351-23.374-37.448-46.017-37.448H245.4
	v-65.315C299.346,387.81,349.728,365.703,388.15,327.283z M326.027,492.911H145.685c3.906-10.7,14.186-18.359,26.221-18.359h127.898
	C311.841,474.552,322.121,482.21,326.027,492.911z M377.059,108.725c-16.262-7.652-31.235-18.125-44.023-30.912
	c-12.787-12.786-23.26-27.762-30.913-44.025c16.129,7.582,30.992,17.986,43.969,30.963
	C359.072,77.729,369.477,92.595,377.059,108.725z M176.8,144.635c1.824,6.924,1.573,13.048-0.76,18.713
	c-0.219,0.531-0.445,1.051-0.672,1.549c-6.921,15.134-21.329,17.362-31.562,14.671c-10.443-2.745-22.125-11.952-20.679-28.863
	c1.097-12.824,4.452-24.251,9.972-33.961c8.639-15.198,12.372-31.837,10.796-48.123c-0.697-7.193-0.378-13.978,0.933-20.227
	c21.838-15.773,47.255-25.525,74.185-28.4c9.093,6.21,15.932,15.153,19.858,26.048c2.521,7.003,2.814,12.281,0.895,16.133
	c-3.473,6.973-15.544,11.475-25.673,14.62C185.503,85.672,169.121,115.47,176.8,144.635z M124.569,65.828
	c0.075,1.534,0.177,3.076,0.328,4.634c1.194,12.347-1.708,25.09-8.393,36.849c-6.891,12.124-11.062,26.177-12.395,41.767
	c-2.298,26.883,15.844,43.956,34.844,48.951c3.99,1.049,8.21,1.61,12.491,1.61c15.867,0,32.554-7.704,41.29-26.814
	c0.326-0.713,0.641-1.442,0.953-2.198c3.925-9.529,4.454-19.909,1.573-30.851c-5.07-19.255,5.69-38.91,24.494-44.748
	c15.345-4.763,30.461-11.011,37.099-24.34c4.305-8.645,4.299-19.111-0.023-31.113c-2.676-7.426-6.381-14.185-10.978-20.157
	c10.929,0.687,21.645,2.491,32.006,5.372c8.607,24.881,22.944,47.795,41.677,66.526c18.733,18.733,41.644,33.069,66.522,41.676
	c3.754,13.505,5.695,27.604,5.695,42.003c0,0.816-0.018,1.629-0.029,2.442c-5.624-1.801-12.671-3.669-20.278-4.765
	c-32.32-4.654-48.264,8.103-55.946,19.626c-11.141,16.71-14.435,33.99-17.082,47.876c-2.963,15.548-4.733,22.067-10.391,23.953
	c-3.193,1.064-7.076,1.844-11.186,2.669c-20.079,4.028-49.883,10.017-58.72,63.097c-8.623-0.97-17.089-2.646-25.329-5
	c-8.679-24.737-22.561-46.757-41.317-65.513c-18.482-18.481-41.048-32.697-65.52-41.322c-3.95-13.827-6.002-28.285-6.002-43.062
	C79.956,133.849,95.793,95.148,124.569,65.828z M390.204,197.082c-4.69,33.261-19.938,63.973-44.11,88.146
	c-29.102,29.102-67.686,45.271-108.785,45.644c6.772-38.007,24.546-41.605,43.291-45.364c4.499-0.902,9.151-1.836,13.468-3.274
	c16.838-5.614,20.025-22.326,23.106-38.488c2.446-12.829,5.218-27.369,14.213-40.863
	C344.495,183.221,376.551,192.128,390.204,197.082z M125.619,285.228c-12.638-12.638-22.832-27.069-30.36-42.712
	c15.758,7.545,30.07,17.705,42.719,30.356c12.647,12.647,22.804,26.957,30.347,42.713
	C152.683,308.056,138.255,297.865,125.619,285.228z M119.055,305.289c32.144,28.885,73.256,44.689,116.801,44.689
	c46.741,0,90.684-18.202,123.736-51.254s51.252-76.994,51.252-123.736c0-43.545-15.805-84.659-44.689-116.801l15.082-15.083
	c69.882,76.941,67.684,196.408-6.588,270.679c-37.073,37.074-86.364,57.491-138.795,57.491c-49.235,0-95.704-18.005-131.886-50.902
	L119.055,305.289z"/>
<g>
	<path style="fill:#FFFFFF;" d="M275.44,312.237c-4.077,0-7.852-2.633-9.117-6.732c-1.555-5.037,1.268-10.381,6.305-11.935
		c19.051-5.879,36.676-16.544,50.975-30.839c20.324-20.322,33.025-47.23,35.763-75.763c1.615-16.683-0.103-33.222-5.106-49.165
		c-5.984-19.178-16.301-36.184-30.668-50.56c-7.143-7.148-15.035-13.361-23.456-18.466c-4.508-2.734-5.946-8.603-3.212-13.111
		c2.732-4.509,8.603-5.944,13.111-3.213c9.73,5.899,18.834,13.063,27.06,21.295c16.571,16.581,28.476,36.214,35.384,58.355
		c5.768,18.382,7.75,37.462,5.888,56.697c-3.159,32.929-17.815,63.981-41.267,87.432c-16.486,16.486-36.832,28.789-58.841,35.581
		C277.321,312.099,276.373,312.237,275.44,312.237z"/>
	<circle style="fill:#FFFFFF;" cx="278.321" cy="46.995" r="9.545"/>
</g>
<g>
</g>
<g>
</g>
<g>
</g>
<g>
</g>
<g>
</g>
<g>
</g>
<g>
</g>
<g>
</g>
<g>
</g>
<g>
</g>
<g>
</g>
<g>
</g>
<g>
</g>
<g>
</g>
<g>
</g>
</svg>
